name pl06_filtered_grf.mot
datacolumns 37
datarows 12
range 0.487000 0.492500
endheader
time	1_ground_force_vx	1_ground_force_vy	1_ground_force_vz	1_ground_force_px	1_ground_force_py	1_ground_force_pz	1_ground_torque_x	1_ground_torque_y	1_ground_torque_z	2_ground_force_vx	2_ground_force_vy	2_ground_force_vz	2_ground_force_px	2_ground_force_py	2_ground_force_pz	2_ground_torque_x	2_ground_torque_y	2_ground_torque_z	3_ground_force_vx	3_ground_force_vy	3_ground_force_vz	3_ground_force_px	3_ground_force_py	3_ground_force_pz	3_ground_torque_x	3_ground_torque_y	3_ground_torque_z	4_ground_force_vx	4_ground_force_vy	4_ground_force_vz	4_ground_force_px	4_ground_force_py	4_ground_force_pz	4_ground_torque_x	4_ground_torque_y	4_ground_torque_z
            0.487000	            0.000000	           -0.000000	           -0.000000	            0.165178	            0.000000	            0.161360	           -0.000000	           -0.000000	            0.000000	           -0.000000	           -0.000000	           -0.000000	           -0.234587	            0.000000	            0.187931	           -0.000000	            0.000000	           -0.000000	          -16.494193	          246.995816	         -141.564574	            0.412649	            1.262821	            1.878746	            0.933186	          -13.974199	            8.009251	           39.982857	          271.357596	         -112.781609	           -0.353650	            1.256059	            1.905005	            2.517109	           17.083237	           -7.100133
            0.487500	            0.000000	           -0.000000	           -0.000000	            0.165178	            0.000000	            0.161360	           -0.000000	           -0.000000	            0.000000	           -0.000000	           -0.000000	           -0.000000	           -0.234587	            0.000000	            0.187931	           -0.000000	            0.000000	           -0.000000	          -15.991117	          243.748671	         -140.823696	            0.412652	            1.262831	            1.878738	            0.903277	          -13.768431	            7.954593	           39.626243	          267.617368	         -111.920407	           -0.353645	            1.256064	            1.904990	            2.490469	           16.819482	           -7.034085
            0.488000	            0.000000	           -0.000000	           -0.000000	            0.165178	            0.000000	            0.161360	           -0.000000	           -0.000000	            0.000000	           -0.000000	           -0.000000	           -0.000000	           -0.234587	            0.000000	            0.187931	           -0.000000	            0.000000	           -0.000000	          -15.488643	          240.478178	         -140.042656	            0.412655	            1.262841	            1.878727	            0.873503	          -13.562094	            7.897896	           39.268888	          263.862993	         -111.030194	           -0.353640	            1.256069	            1.904973	            2.463788	           16.555154	           -6.966198
            0.488500	            0.000000	           -0.000000	           -0.000000	            0.165178	            0.000000	            0.161360	           -0.000000	           -0.000000	            0.000000	           -0.000000	           -0.000000	           -0.000000	           -0.234587	            0.000000	            0.187931	           -0.000000	            0.000000	           -0.000000	          -14.981642	          237.186647	         -139.218229	            0.412658	            1.262852	            1.878716	            0.843575	          -13.355325	            7.838994	           38.912141	          260.096166	         -110.108185	           -0.353636	            1.256073	            1.904956	            2.437156	           16.290415	           -6.896326
            0.489000	            0.000000	           -0.000000	           -0.000000	            0.165178	            0.000000	            0.161360	           -0.000000	           -0.000000	            0.000000	           -0.000000	           -0.000000	           -0.000000	           -0.234587	            0.000000	            0.187931	           -0.000000	            0.000000	           -0.000000	          -14.470177	          233.874286	         -138.350411	            0.412662	            1.262862	            1.878706	            0.813496	          -13.148140	            7.777899	           38.555235	          256.317667	         -109.154636	           -0.353632	            1.256077	            1.904939	            2.410532	           16.025368	           -6.824513
            0.489500	            0.000000	           -0.000000	           -0.000000	            0.165178	            0.000000	            0.161360	           -0.000000	           -0.000000	            0.000000	           -0.000000	           -0.000000	           -0.000000	           -0.234587	            0.000000	            0.187931	           -0.000000	            0.000000	           -0.000000	          -13.954343	          230.541355	         -137.439246	            0.412665	            1.262873	            1.878695	            0.783274	          -12.940558	            7.714627	           38.197411	          252.528290	         -108.169849	           -0.353627	            1.256082	            1.904922	            2.383874	           15.760116	           -6.750805
            0.490000	            0.000000	           -0.000000	           -0.000000	            0.165178	            0.000000	            0.161360	           -0.000000	           -0.000000	            0.000000	           -0.000000	           -0.000000	           -0.000000	           -0.234587	            0.000000	            0.187931	           -0.000000	            0.000000	           -0.000000	          -13.434268	          227.188173	         -136.484828	            0.412668	            1.262883	            1.878684	            0.752914	          -12.732598	            7.649194	           37.837919	          248.728843	         -107.154172	           -0.353623	            1.256086	            1.904905	            2.357143	           15.494760	           -6.675254
            0.490500	            0.000000	           -0.000000	           -0.000000	            0.165178	            0.000000	            0.161360	           -0.000000	           -0.000000	            0.000000	           -0.000000	           -0.000000	           -0.000000	           -0.234587	            0.000000	            0.187931	           -0.000000	            0.000000	           -0.000000	          -12.915074	          223.813205	         -135.489991	            0.412672	            1.262894	            1.878670	            0.722704	          -12.524176	            7.581771	           37.474233	          244.919295	         -106.110608	           -0.353619	            1.256090	            1.904886	            2.330189	           15.229350	           -6.598074
            0.491000	            0.000000	           -0.000000	           -0.000000	            0.165178	            0.000000	            0.161360	           -0.000000	           -0.000000	            0.000000	           -0.000000	           -0.000000	           -0.000000	           -0.234587	            0.000000	            0.187931	           -0.000000	            0.000000	           -0.000000	          -12.391933	          220.418828	         -134.452193	            0.412676	            1.262905	            1.878657	            0.692372	          -12.315424	            7.512225	           37.107452	          241.101358	         -105.036908	           -0.353616	            1.256093	            1.904866	            2.303087	           14.964040	           -6.519153
            0.491500	            0.000000	           -0.000000	           -0.000000	            0.165178	            0.000000	            0.161360	           -0.000000	           -0.000000	            0.000000	           -0.000000	           -0.000000	           -0.000000	           -0.234587	            0.000000	            0.187931	           -0.000000	            0.000000	           -0.000000	          -11.865059	          217.005540	         -133.371689	            0.412680	            1.262916	            1.878643	            0.661931	          -12.106367	            7.440578	           36.736872	          237.275888	         -103.933554	           -0.353612	            1.256097	            1.904847	            2.275801	           14.698930	           -6.438547
            0.492000	            0.000000	           -0.000000	           -0.000000	            0.165178	            0.000000	            0.161360	           -0.000000	           -0.000000	            0.000000	           -0.000000	           -0.000000	           -0.000000	           -0.234587	            0.000000	            0.187931	           -0.000000	            0.000000	           -0.000000	          -11.334696	          213.573896	         -132.248791	            0.412685	            1.262927	            1.878629	            0.631394	          -11.897033	            7.366856	           36.361808	          233.443752	         -102.801072	           -0.353608	            1.256101	            1.904828	            2.248296	           14.434118	           -6.356319
            0.492500	            0.000000	           -0.000000	           -0.000000	            0.165178	            0.000000	            0.161360	           -0.000000	           -0.000000	            0.000000	           -0.000000	           -0.000000	           -0.000000	           -0.234587	            0.000000	            0.187931	           -0.000000	            0.000000	           -0.000000	          -10.801116	          210.124515	         -131.083869	            0.412689	            1.262938	            1.878616	            0.600775	          -11.687451	            7.291088	           35.981599	          229.605834	         -101.640032	           -0.353605	            1.256104	            1.904809	            2.220538	           14.169702	           -6.272528
